HIERARCHY
ROOT Hips
{
	OFFSET -0.001795 -0.223333 0.028219
	CHANNELS 6 Xposition Yposition Zposition Zrotation Yrotation Xrotation 
	JOINT LeftUpLeg
	{
		OFFSET 0.069520 -0.091406 -0.006815
		CHANNELS 3 Zrotation Yrotation Xrotation
		JOINT LeftLeg
		{
			OFFSET 0.034277 -0.375199 -0.004496
			CHANNELS 3 Zrotation Yrotation Xrotation
			JOINT LeftFoot
			{
				OFFSET -0.013596 -0.397961 -0.043693
				CHANNELS 3 Zrotation Yrotation Xrotation
				JOINT LeftToe
				{
					OFFSET 0.026358 -0.055791 0.119288
					CHANNELS 3 Zrotation Yrotation Xrotation
					End Site
					{
						OFFSET 0.000000 0.000000 0.000000
					}
				}
			}
		}
	}
	JOINT RightUpLeg
	{
		OFFSET -0.067670 -0.090522 -0.004320
		CHANNELS 3 Zrotation Yrotation Xrotation
		JOINT RightLeg
		{
			OFFSET -0.038290 -0.382569 -0.008850
			CHANNELS 3 Zrotation Yrotation Xrotation
			JOINT RightFoot
			{
				OFFSET 0.015774 -0.398415 -0.042312
				CHANNELS 3 Zrotation Yrotation Xrotation
				JOINT RightToe
				{
					OFFSET -0.025372 -0.048144 0.123348
					CHANNELS 3 Zrotation Yrotation Xrotation
					End Site
					{
						OFFSET 0.000000 0.000000 0.000000
					}
				}
			}
		}
	}
	JOINT Spine
	{
		OFFSET -0.002533 0.108963 -0.026696
		CHANNELS 3 Zrotation Yrotation Xrotation
		JOINT Spine1
		{
			OFFSET 0.005487 0.135180 0.001092
			CHANNELS 3 Zrotation Yrotation Xrotation
			JOINT Spine2
			{
				OFFSET 0.001457 0.052922 0.025425
				CHANNELS 3 Zrotation Yrotation Xrotation
				JOINT Neck
				{
					OFFSET -0.002778 0.213870 -0.042857
					CHANNELS 3 Zrotation Yrotation Xrotation
					JOINT Head
					{
						OFFSET 0.005152 0.064970 0.051349
						CHANNELS 3 Zrotation Yrotation Xrotation
						End Site
						{
							OFFSET 0.000000 0.000000 0.000000
						}
					}
				}
				JOINT LeftShoulder
				{
					OFFSET 0.078845 0.121749 -0.034090
					CHANNELS 3 Zrotation Yrotation Xrotation
					JOINT LeftArm
					{
						OFFSET 0.090977 0.030469 -0.008868
						CHANNELS 3 Zrotation Yrotation Xrotation
						JOINT LeftForeArm
						{
							OFFSET 0.259612 -0.012772 -0.027456
							CHANNELS 3 Zrotation Yrotation Xrotation
							JOINT LeftHand
							{
								OFFSET 0.249234 0.008986 -0.001171
								CHANNELS 3 Zrotation Yrotation Xrotation
								End Site
								{
									OFFSET 0.000000 0.000000 0.000000
								}
							}
						}
					}
				}
				JOINT RightShoulder
				{
					OFFSET -0.081759 0.118833 -0.038615
					CHANNELS 3 Zrotation Yrotation Xrotation
					JOINT RightArm
					{
						OFFSET -0.096012 0.032551 -0.009143
						CHANNELS 3 Zrotation Yrotation Xrotation
						JOINT RightForeArm
						{
							OFFSET -0.253742 -0.013329 -0.021401
							CHANNELS 3 Zrotation Yrotation Xrotation
							JOINT RightHand
							{
								OFFSET -0.255298 0.007772 -0.005559
								CHANNELS 3 Zrotation Yrotation Xrotation
								End Site
								{
									OFFSET 0.000000 0.000000 0.000000
								}
							}
						}
					}
				}
			}
		}
	}
}
MOTION
Frames: 15
Frame Time: 0.050000
0.000000 0.953162 0.000000 -1.176034 13.166752 3.071477 5.854036 -0.193315 4.038053 -3.540688 0.256249 -6.114862 11.034809 22.385058 20.745443 0.000000 0.000000 0.000000 -3.886287 0.302219 -4.457026 3.647063 -0.501970 0.865305 -1.547845 -6.279105 12.765027 0.000000 0.000000 0.000000 7.094290 -0.433291 2.419248 -3.901987 1.834307 -20.597951 -3.912695 -5.050793 28.044203 7.624150 -2.375401 -26.600235 0.000000 0.000000 0.000000 -11.873890 -16.090021 6.275471 -40.291272 -34.649923 4.461770 10.824799 -48.101610 -2.622051 0.000000 0.000000 0.000000 23.605588 -4.158626 -2.804269 55.289933 7.301512 -4.793072 5.612156 31.234857 3.418511 0.000000 0.000000 0.000000 
-0.000147 0.952115 0.002663 -1.465512 13.037793 3.657333 5.913109 -0.206905 3.895237 -3.060023 0.241969 -6.767497 11.210606 22.575970 20.712273 0.000000 0.000000 0.000000 -4.354946 0.290415 -4.450745 4.759091 -0.656027 -0.118852 -0.967994 -5.204897 12.849746 0.000000 0.000000 0.000000 7.710651 -0.343488 1.123052 -4.352204 1.919454 -21.125918 -3.807377 -5.295951 29.291466 8.847191 -3.079210 -27.258137 0.000000 0.000000 0.000000 -11.709265 -14.681101 5.720504 -40.488682 -33.827898 4.089880 12.645438 -50.980384 -3.548777 0.000000 0.000000 0.000000 22.903619 -5.250222 -3.525441 56.202300 7.045681 -4.976883 6.551260 32.264130 3.830753 0.000000 0.000000 0.000000 
-0.000384 0.951771 0.004760 -1.643933 13.007989 3.770643 6.550446 -0.272542 3.461049 -3.769708 0.262971 -6.059451 11.313748 22.692990 20.532714 0.000000 0.000000 0.000000 -4.177606 0.309908 -4.611406 4.443964 -0.612471 0.172802 -0.419874 -4.104788 12.622846 0.000000 0.000000 0.000000 8.615997 -0.342531 0.676279 -4.909406 2.056130 -21.097697 -3.865770 -3.978123 29.285157 9.631656 -3.600839 -25.658063 0.000000 0.000000 0.000000 -11.496604 -14.483680 5.413651 -40.872298 -33.295255 3.926640 10.820094 -52.564388 -2.963079 0.000000 0.000000 0.000000 23.423401 -6.174708 -3.760217 55.969224 6.899127 -5.119690 8.211769 31.985517 4.362018 0.000000 0.000000 0.000000 
-0.000729 0.951503 0.006783 -1.817443 13.014499 3.917135 6.824838 -0.299213 3.575595 -3.836553 0.259172 -6.395654 11.330152 22.706436 20.566432 0.000000 0.000000 0.000000 -4.368823 0.292134 -4.416141 5.438024 -0.743892 -0.762226 -0.731061 -4.906828 13.625033 0.000000 0.000000 0.000000 9.009901 -0.281561 -0.052191 -5.367389 2.168796 -21.018928 -3.481716 -4.074970 29.510170 10.318568 -4.150363 -25.020248 0.000000 0.000000 0.000000 -12.001123 -14.351574 5.394324 -40.439186 -31.800905 3.345920 10.097050 -53.521773 -2.670311 0.000000 0.000000 0.000000 23.832184 -7.213635 -4.485288 55.428983 6.416771 -5.323396 9.485506 32.371033 4.792166 0.000000 0.000000 0.000000 
-0.001147 0.951307 0.008458 -1.674254 12.833315 4.015904 6.534781 -0.271590 3.428762 -3.552113 0.260415 -6.033574 11.446128 22.837289 20.609996 0.000000 0.000000 0.000000 -4.509861 0.292246 -4.471676 5.275661 -0.718699 -0.746227 -0.403714 -4.325898 13.685212 0.000000 0.000000 0.000000 8.745663 -0.263964 -0.120034 -4.949231 2.061985 -21.045926 -3.699324 -4.265481 29.274164 10.134198 -4.102267 -24.840665 0.000000 0.000000 0.000000 -12.025071 -14.190559 5.374505 -40.425465 -31.475971 3.253704 9.815923 -53.421476 -2.475736 0.000000 0.000000 0.000000 24.248043 -7.006053 -4.508529 55.188914 6.413100 -5.278084 9.678027 32.908982 4.905349 0.000000 0.000000 0.000000 
-0.001445 0.951423 0.009614 -1.954288 11.781648 3.749788 6.646615 -0.251989 3.892252 -3.439002 0.270686 -5.987949 12.049566 23.481123 21.065308 0.000000 0.000000 0.000000 -4.484372 0.306299 -4.545536 5.610898 -0.750111 -0.783234 0.193213 -3.593332 14.690369 0.000000 0.000000 0.000000 9.018170 -0.269917 -0.035682 -4.878596 2.025962 -21.140562 -3.602391 -4.332557 29.624907 9.992699 -4.134910 -24.848050 0.000000 0.000000 0.000000 -11.933331 -13.849539 5.357993 -39.988829 -31.276514 3.080190 11.136173 -52.981930 -2.977277 0.000000 0.000000 0.000000 24.434397 -6.562097 -4.468593 55.080441 6.449938 -5.260077 9.795244 33.082267 4.904604 0.000000 0.000000 0.000000 
-0.001659 0.951231 0.010268 -1.846701 11.207258 3.840320 6.578807 -0.235619 3.857797 -3.638405 0.283973 -5.812001 12.374065 23.828140 21.288525 0.000000 0.000000 0.000000 -4.392343 0.326398 -4.706538 5.440701 -0.718924 -0.773323 0.084873 -3.864222 14.613992 0.000000 0.000000 0.000000 8.840029 -0.270832 0.049735 -4.549419 1.933212 -21.173022 -3.823379 -4.518140 29.405634 10.532632 -4.496805 -25.082233 0.000000 0.000000 0.000000 -11.628962 -13.923367 5.468931 -39.495580 -30.776699 2.865497 10.977232 -52.076972 -2.789388 0.000000 0.000000 0.000000 24.632202 -6.311007 -4.524711 55.162774 6.382962 -5.235728 10.041287 32.914027 4.884289 0.000000 0.000000 0.000000 
-0.001723 0.951135 0.010572 -2.028743 10.729205 3.700745 6.740604 -0.237527 3.963195 -3.694953 0.293111 -5.604905 12.681980 24.156246 21.417231 0.000000 0.000000 0.000000 -4.129528 0.353904 -4.923680 5.432836 -0.713962 -0.557622 0.030860 -4.151135 15.105784 0.000000 0.000000 0.000000 8.954771 -0.288702 0.220876 -4.286179 1.859630 -21.176774 -4.026799 -5.002423 29.382784 10.832072 -4.786447 -25.207466 0.000000 0.000000 0.000000 -11.864026 -14.284235 5.786471 -38.543473 -30.486770 2.639189 11.221304 -50.450424 -2.731601 0.000000 0.000000 0.000000 24.686001 -5.638658 -4.365152 55.156707 6.696841 -5.052974 9.811960 32.075135 4.588172 0.000000 0.000000 0.000000 
-0.001543 0.950911 0.010616 -2.129196 10.384722 3.759246 6.756668 -0.232888 3.966275 -3.650199 0.295265 -5.633627 12.912872 24.403782 21.505576 0.000000 0.000000 0.000000 -3.990837 0.379126 -5.181366 5.253459 -0.684664 -0.623586 0.231703 -3.979815 15.720691 0.000000 0.000000 0.000000 8.990183 -0.297050 0.286045 -4.165753 1.826582 -21.048635 -4.109276 -5.211326 29.164481 11.049263 -4.975928 -25.190142 0.000000 0.000000 0.000000 -11.486302 -14.850279 6.085467 -38.306717 -30.928324 2.773881 10.875382 -48.228608 -2.417273 0.000000 0.000000 0.000000 24.838187 -5.569060 -4.492300 55.329251 6.955983 -4.893926 9.395223 30.945314 4.241227 0.000000 0.000000 0.000000 
-0.001130 0.950868 0.010491 -2.256974 10.194144 3.664444 6.787902 -0.227908 4.171523 -3.566201 0.293689 -5.794500 13.033031 24.527729 21.559996 0.000000 0.000000 0.000000 -3.873450 0.392588 -5.303311 5.103612 -0.663509 -0.539157 0.468041 -3.708036 16.236495 0.000000 0.000000 0.000000 8.972933 -0.307057 0.410121 -3.873322 1.748031 -21.103569 -4.387461 -5.739750 29.248262 11.156218 -5.091694 -25.487317 0.000000 0.000000 0.000000 -11.359490 -15.258270 6.367881 -37.826287 -31.024573 2.736530 11.024671 -46.494723 -2.335396 0.000000 0.000000 0.000000 24.892788 -4.934868 -4.310277 55.168777 7.157920 -4.765288 9.045927 30.109928 3.953935 0.000000 0.000000 0.000000 
-0.000478 0.950731 0.010275 -2.343185 9.847641 3.603788 6.838939 -0.221326 4.390205 -3.667461 0.299478 -5.985822 13.236960 24.740482 21.663497 0.000000 0.000000 0.000000 -3.841005 0.396670 -5.301405 5.046205 -0.650379 -0.683429 0.713272 -3.417127 16.589365 0.000000 0.000000 0.000000 8.939094 -0.325217 0.611314 -3.765199 1.716327 -21.028145 -4.433319 -5.982150 29.206714 11.180025 -5.124182 -25.725712 0.000000 0.000000 0.000000 -11.303859 -15.571518 6.583472 -37.766098 -31.365732 2.843656 10.842800 -45.211693 -2.145545 0.000000 0.000000 0.000000 24.776899 -4.668419 -4.286607 55.262286 7.347417 -4.644883 8.976819 29.338805 3.775278 0.000000 0.000000 0.000000 
0.000334 0.950801 0.010127 -2.342847 9.484709 3.583976 6.709126 -0.198968 4.556866 -3.636785 0.301739 -6.125623 13.433142 24.942204 21.835880 0.000000 0.000000 0.000000 -3.902615 0.394679 -5.261632 5.030093 -0.642887 -0.792584 0.901435 -3.161022 16.649810 0.000000 0.000000 0.000000 8.873571 -0.321513 0.632463 -3.699028 1.695193 -20.946973 -4.542983 -6.278355 29.359458 11.258936 -5.261559 -25.734851 0.000000 0.000000 0.000000 -11.177439 -15.747459 6.741359 -37.663689 -31.219631 2.775064 11.258815 -44.844127 -2.239384 0.000000 0.000000 0.000000 24.788974 -4.220811 -4.183025 54.924244 7.515927 -4.532948 8.865907 29.021293 3.652686 0.000000 0.000000 0.000000 
0.001271 0.951002 0.010087 -2.422004 9.286822 3.623507 6.660603 -0.190490 4.594541 -3.565791 0.301196 -6.217903 13.549457 25.062218 21.952337 0.000000 0.000000 0.000000 -3.945497 0.393542 -5.232126 5.123723 -0.651710 -0.838188 1.054635 -2.883550 16.501672 0.000000 0.000000 0.000000 8.850935 -0.318802 0.618803 -3.581102 1.664167 -20.782736 -4.569227 -6.335533 29.230125 11.531448 -5.403030 -25.896032 0.000000 0.000000 0.000000 -11.169346 -15.877591 6.827690 -37.813614 -30.673670 2.644896 11.508722 -45.197823 -2.334838 0.000000 0.000000 0.000000 24.697174 -4.182344 -4.217470 54.946860 7.511108 -4.498228 8.412334 28.478240 3.442825 0.000000 0.000000 0.000000 
0.002197 0.951188 0.010038 -2.449047 9.056797 3.681579 6.600325 -0.178353 4.752501 -3.581612 0.302069 -6.533196 13.657109 25.166325 22.124176 0.000000 0.000000 0.000000 -3.969934 0.396730 -5.255398 5.036882 -0.637753 -0.833702 1.272480 -2.491436 16.351879 0.000000 0.000000 0.000000 8.922066 -0.310238 0.520247 -3.649283 1.677779 -20.740819 -4.540280 -6.519567 29.292465 11.641060 -5.513374 -25.935201 0.000000 0.000000 0.000000 -11.301632 -16.008154 6.960485 -37.818613 -29.989654 2.428478 12.108355 -45.691239 -2.567718 0.000000 0.000000 0.000000 24.615327 -3.961282 -4.181923 54.831663 7.406503 -4.518530 8.117871 28.259685 3.313985 0.000000 0.000000 0.000000 
0.003053 0.951458 0.009990 -2.475823 8.922918 3.798166 6.507207 -0.170903 4.625430 -3.505150 0.301655 -6.495217 13.738307 25.251784 22.228374 0.000000 0.000000 0.000000 -4.093737 0.404587 -5.427262 5.096419 -0.644253 -0.713563 1.506421 -2.097535 16.359810 0.000000 0.000000 0.000000 9.030374 -0.310386 0.462853 -3.741583 1.698851 -20.710827 -4.473598 -6.598198 29.212632 11.815468 -5.622222 -26.009207 0.000000 0.000000 0.000000 -11.542864 -15.974936 7.003491 -37.857587 -29.246385 2.205057 12.667663 -45.823789 -2.789498 0.000000 0.000000 0.000000 24.628217 -3.930539 -4.227464 54.654971 7.217885 -4.569192 7.660746 28.208006 3.181574 0.000000 0.000000 0.000000 
